<svg width="80" height="80" viewBox="0 0 80 80" fill="none" xmlns="http://www.w3.org/2000/svg">
<rect width="80" height="80" rx="40" fill="url(#paint0_linear_159_369)"/>
<path d="M29.3389 39.4756C33.7969 41.2439 36.8866 44.2395 39.6077 48.0192C42.2974 44.2708 45.3949 41.138 49.951 39.4756V56.4452H29.3389V39.4756Z" fill="white"/>
<path d="M45.7052 36.4381C44.576 33.7209 45.9954 30.9881 45.3759 28.1964C44.1447 28.8826 45.3014 30.1216 44.4192 30.9959C42.8704 31.1135 41.2041 31.6978 39.5887 32.58C38.0046 31.7487 36.3343 31.1802 34.6522 30.9528C34.0955 30.1137 34.5699 29.2786 34.3111 28.3885C33.3466 28.0513 32.3154 27.6867 30.7549 27.1417C33.9386 26.0046 36.6754 25.0009 39.4318 24.0599C40.0317 23.856 40.6277 24.2206 41.2041 24.4402C43.4311 25.2989 45.666 26.1458 47.9519 27.0201C47.4814 27.7965 46.6306 27.5573 46.1993 28.0396C45.3328 30.8077 47.0893 33.7209 45.7013 36.4342L45.7052 36.4381Z" fill="white"/>
<path d="M25.0236 56.517H19.4756V41.896C21.5341 42.1822 23.4239 42.7664 25.0236 44.1819V56.517Z" fill="white"/>
<path d="M59.7736 56.4387C57.8876 56.6661 56.1311 56.5798 54.2451 56.4661V44.2016C55.6645 42.7155 57.6759 42.4058 59.7736 41.7432V56.4387Z" fill="white"/>
<path d="M34.5944 32.0945C36.4646 31.9338 37.931 32.7572 39.5072 33.5021C41.1462 32.9218 42.7106 31.7534 44.6515 32.1612C45.2945 34.6627 44.6475 36.5996 42.7733 37.8622C40.8756 39.1443 38.4055 39.1365 36.5156 37.8386C34.6179 36.5369 33.9631 34.6274 34.5944 32.0906V32.0945Z" fill="white"/>
<path d="M62.8398 56.4898V47.0012C64.1141 46.0367 65.4041 45.5662 66.9842 45.3701V56.4937H62.8398V56.4898Z" fill="white"/>
<path d="M16.3501 46.9809V56.4655H12.2842V45.4831C13.8761 45.4007 15.1111 46.1104 16.3501 46.9809Z" fill="white"/>
<defs>
<linearGradient id="paint0_linear_159_369" x1="79.9996" y1="4.42308" x2="0.845449" y2="13.6863" gradientUnits="userSpaceOnUse">
<stop stop-color="#FDD153"/>
<stop offset="0.5" stop-color="#D9155C"/>
<stop offset="1" stop-color="#09CFF9"/>
</linearGradient>
</defs>
</svg>
