<svg width="140" height="91" viewBox="0 0 140 91" fill="none" xmlns="http://www.w3.org/2000/svg">
<g opacity="0.45" filter="url(#filter0_f_117_384)">
<rect x="24" y="24" width="92" height="43" rx="8" fill="white"/>
</g>
<rect x="3" y="4" width="134" height="63" rx="8" fill="white"/>
<rect x="13" y="14" width="43" height="43" rx="8" fill="url(#paint0_linear_117_384)"/>
<g opacity="0.05" filter="url(#filter1_f_117_384)">
<rect x="24" y="24" width="92" height="43" rx="8" fill="white"/>
</g>
<rect x="3" y="4" width="134" height="60" rx="5.29766" fill="url(#paint1_linear_117_384)"/>
<path d="M31.84 31.72L34.24 29.32C34.528 29.656 34.864 29.968 35.224 30.232C35.872 30.688 36.76 31.12 37.84 31.12C39.76 31.12 40.84 30.04 40.84 28.6C40.84 27.16 39.784 26.08 37.96 26.08C37.024 26.08 36.352 26.392 35.896 26.752C35.632 26.944 35.392 27.16 35.2 27.4L32.68 27.04L33.28 17.2H43.48V20.56H36.4L36.28 23.56C36.448 23.44 36.664 23.344 36.928 23.272C37.336 23.104 37.936 22.96 38.68 22.96C42.16 22.96 44.56 25.336 44.56 28.6C44.56 31.84 42.04 34.36 38.2 34.36C36.088 34.36 34.504 33.712 33.448 33.04C32.824 32.656 32.296 32.224 31.84 31.72ZM53.9313 31C55.7313 31 57.5312 29.2 57.5312 25.6C57.5312 22 55.7313 20.2 53.9313 20.2C52.1313 20.2 50.3313 22 50.3313 25.6C50.3313 29.2 52.1313 31 53.9313 31ZM53.9313 34.36C50.0913 34.36 46.7313 31 46.7313 25.6C46.7313 20.2 50.0913 16.84 53.9313 16.84C57.7713 16.84 61.1313 20.2 61.1313 25.6C61.1313 31 57.7713 34.36 53.9313 34.36ZM70.7359 31C72.5359 31 74.3359 29.2 74.3359 25.6C74.3359 22 72.5359 20.2 70.7359 20.2C68.9359 20.2 67.1359 22 67.1359 25.6C67.1359 29.2 68.9359 31 70.7359 31ZM70.7359 34.36C66.8959 34.36 63.5359 31 63.5359 25.6C63.5359 20.2 66.8959 16.84 70.7359 16.84C74.5759 16.84 77.9359 20.2 77.9359 25.6C77.9359 31 74.5759 34.36 70.7359 34.36ZM87.5406 31C89.3406 31 91.1406 29.2 91.1406 25.6C91.1406 22 89.3406 20.2 87.5406 20.2C85.7406 20.2 83.9406 22 83.9406 25.6C83.9406 29.2 85.7406 31 87.5406 31ZM87.5406 34.36C83.7006 34.36 80.3406 31 80.3406 25.6C80.3406 20.2 83.7006 16.84 87.5406 16.84C91.3806 16.84 94.7406 20.2 94.7406 25.6C94.7406 31 91.3806 34.36 87.5406 34.36ZM96.7853 28.48V25.48H100.865V21.4H103.625V25.48H107.705V28.48H103.625V32.56H100.865V28.48H96.7853Z" fill="white"/>
<path d="M35.3055 49.6409L36.8327 48.1136C37.016 48.3274 37.2298 48.526 37.4895 48.694C37.9171 48.9842 38.5433 49.2591 39.3527 49.2591C40.5745 49.2591 41.1091 48.7245 41.1091 48.0373C41.1091 46.2198 35.7636 47.0293 35.7636 43.3027C35.7636 41.6227 37.2145 40.1718 39.6582 40.1718C40.8342 40.1718 41.7505 40.5383 42.3462 40.9049C42.6975 41.1187 42.9876 41.3631 43.2473 41.6227L41.72 43.15C41.552 42.982 41.384 42.8293 41.1855 42.6918C40.8342 42.4627 40.3455 42.2336 39.7345 42.2336C38.5738 42.2336 38.1309 42.6918 38.1309 43.3027C38.1309 45.1202 43.4764 44.3107 43.4764 48.0373C43.4764 49.7936 41.9491 51.3209 39.4291 51.3209C38.0393 51.3209 37.016 50.9085 36.3287 50.4809C35.9164 50.2365 35.5804 49.9616 35.3055 49.6409ZM45.5376 48.4954V45.67H44.2394V43.7609H44.9267C45.4918 43.7609 45.7667 43.4554 45.7667 42.8445V41.47H47.5994V43.7609H49.2794V45.67H47.5994V48.19C47.5994 48.8773 47.9812 49.2591 48.5921 49.2591C48.8212 49.2591 49.0198 49.2285 49.1878 49.1827C49.2794 49.1674 49.3558 49.1369 49.4321 49.1063V51.0154C49.3099 51.0613 49.1725 51.0918 49.035 51.1376C48.7907 51.1987 48.4394 51.2445 48.0576 51.2445C46.5303 51.2445 45.5376 50.2671 45.5376 48.4954ZM50.8926 48.1136V43.6082H52.9544V47.8082C52.9544 48.7245 53.4737 49.2591 54.3289 49.2591C55.2453 49.2591 55.9326 48.5718 55.9326 47.5791V43.6082H57.9944V51.0918H55.9326V50.0227H55.8562C55.6882 50.2518 55.5049 50.4503 55.2911 50.6336C54.9246 50.9391 54.3595 51.2445 53.6417 51.2445C52.1144 51.2445 50.8926 50.0227 50.8926 48.1136ZM65.3211 51.0918V50.0227H65.2448C65.092 50.2518 64.8935 50.4503 64.6644 50.6336C64.252 50.9391 63.6717 51.2445 62.8775 51.2445C61.1059 51.2445 59.5175 49.6409 59.5175 47.35C59.5175 45.0743 61.1059 43.4554 62.8775 43.4554C63.6717 43.4554 64.252 43.7609 64.6644 44.0663C64.8935 44.2496 65.092 44.4482 65.2448 44.6773H65.3211V40.4009H67.383V51.0918H65.3211ZM63.4884 49.3354C64.5575 49.3354 65.3975 48.4954 65.3975 47.35C65.3975 46.2045 64.5575 45.3645 63.4884 45.3645C62.4193 45.3645 61.5793 46.2045 61.5793 47.35C61.5793 48.4954 62.4193 49.3354 63.4884 49.3354ZM75.0975 48.5718L76.1666 50.0227C75.9375 50.2518 75.6626 50.4503 75.3418 50.6336C74.792 50.9391 73.9978 51.2445 72.9593 51.2445C70.7447 51.2445 68.9884 49.4882 68.9884 47.35C68.9884 45.2118 70.7447 43.4554 72.8829 43.4554C74.9447 43.4554 76.6247 45.1354 76.6247 47.1973C76.6247 47.4874 76.5942 47.686 76.5789 47.854L76.5484 48.1136H71.1266C71.3557 48.8009 71.9666 49.4118 73.112 49.4118C73.7687 49.4118 74.2422 49.2285 74.5935 48.9994C74.792 48.8773 74.96 48.7398 75.0975 48.5718ZM71.1266 46.5863H74.4866C74.2575 45.8991 73.6618 45.2882 72.8066 45.2882C71.9513 45.2882 71.3557 45.8991 71.1266 46.5863ZM78.1568 51.0918V43.6082H80.2186V44.6773H80.295C80.463 44.4482 80.6462 44.2496 80.8601 44.0663C81.2266 43.7609 81.7764 43.4554 82.5095 43.4554C84.0368 43.4554 85.2586 44.6773 85.2586 46.5863V51.0918H83.1968V46.8918C83.1968 45.9754 82.6775 45.4409 81.8222 45.4409C80.9059 45.4409 80.2186 46.1282 80.2186 47.1209V51.0918H78.1568ZM87.7016 48.4954V45.67H86.4035V43.7609H87.0907C87.6558 43.7609 87.9307 43.4554 87.9307 42.8445V41.47H89.7635V43.7609H91.4435V45.67H89.7635V48.19C89.7635 48.8773 90.1453 49.2591 90.7562 49.2591C90.9853 49.2591 91.1838 49.2285 91.3518 49.1827C91.4435 49.1674 91.5198 49.1369 91.5962 49.1063V51.0154C91.474 51.0613 91.3366 51.0918 91.1991 51.1376C90.9547 51.1987 90.6035 51.2445 90.2216 51.2445C88.6944 51.2445 87.7016 50.2671 87.7016 48.4954ZM92.4422 49.87L93.664 48.5718C93.8167 48.7398 94 48.8773 94.1985 48.9994C94.5498 49.2285 95.0385 49.4118 95.6494 49.4118C96.3367 49.4118 96.5658 49.1827 96.5658 48.8773C96.5658 48.0373 92.7476 48.19 92.7476 45.7463C92.7476 44.5245 93.8167 43.4554 95.7258 43.4554C96.688 43.4554 97.4058 43.7456 97.8945 44.0358C98.1847 44.2038 98.4291 44.4023 98.6276 44.6009L97.4058 45.8991C97.2836 45.7922 97.1309 45.6853 96.9629 45.5936C96.6727 45.4256 96.2603 45.2882 95.7258 45.2882C95.1912 45.2882 94.9622 45.5173 94.9622 45.7463C94.9622 46.5863 98.7803 46.4336 98.7803 48.8773C98.7803 50.1602 97.7112 51.2445 95.6494 51.2445C94.6109 51.2445 93.8167 50.9085 93.2669 50.5573C92.9462 50.3587 92.6712 50.1296 92.4422 49.87Z" fill="white"/>
<defs>
<filter id="filter0_f_117_384" x="0" y="0" width="140" height="91" filterUnits="userSpaceOnUse" color-interpolation-filters="sRGB">
<feFlood flood-opacity="0" result="BackgroundImageFix"/>
<feBlend mode="normal" in="SourceGraphic" in2="BackgroundImageFix" result="shape"/>
<feGaussianBlur stdDeviation="12" result="effect1_foregroundBlur_117_384"/>
</filter>
<filter id="filter1_f_117_384" x="0" y="0" width="140" height="91" filterUnits="userSpaceOnUse" color-interpolation-filters="sRGB">
<feFlood flood-opacity="0" result="BackgroundImageFix"/>
<feBlend mode="normal" in="SourceGraphic" in2="BackgroundImageFix" result="shape"/>
<feGaussianBlur stdDeviation="12" result="effect1_foregroundBlur_117_384"/>
</filter>
<linearGradient id="paint0_linear_117_384" x1="34.5" y1="9.65169" x2="137.565" y2="180.558" gradientUnits="userSpaceOnUse">
<stop stop-color="#FDA24C"/>
<stop offset="0.303586" stop-color="#EF43AD"/>
<stop offset="0.48364" stop-color="#9C25C4"/>
</linearGradient>
<linearGradient id="paint1_linear_117_384" x1="136.999" y1="7.31731" x2="-19.9485" y2="47.0607" gradientUnits="userSpaceOnUse">
<stop stop-color="#FDD153"/>
<stop offset="0.501961" stop-color="#D9155C"/>
<stop offset="1" stop-color="#09CFF9"/>
</linearGradient>
</defs>
</svg>
