<svg width="140" height="91" viewBox="0 0 140 91" fill="none" xmlns="http://www.w3.org/2000/svg">
<g opacity="0.45" filter="url(#filter0_f_117_374)">
<rect x="24" y="24" width="92" height="43" rx="8" fill="white"/>
</g>
<rect x="3" y="4" width="134" height="63" rx="8" fill="white"/>
<rect x="13" y="14" width="43" height="43" rx="8" fill="url(#paint0_linear_117_374)"/>
<g opacity="0.05" filter="url(#filter1_f_117_374)">
<rect x="24" y="24" width="92" height="43" rx="8" fill="white"/>
</g>
<rect x="3" y="4" width="134" height="60" rx="5.29766" fill="url(#paint1_linear_117_374)"/>
<path d="M55.6 33V20.76H52.72V18.48C54.064 18.312 54.904 17.76 55.456 17.208C55.768 16.896 56.008 16.56 56.2 16.2H59.2V33H55.6ZM62.1916 30.72L64.5916 28.32C64.8796 28.656 65.2156 28.968 65.5756 29.232C66.2236 29.688 67.1116 30.12 68.1916 30.12C70.1116 30.12 71.1916 29.04 71.1916 27.6C71.1916 26.16 70.1356 25.08 68.3116 25.08C67.3756 25.08 66.7036 25.392 66.2476 25.752C65.9836 25.944 65.7436 26.16 65.5516 26.4L63.0316 26.04L63.6316 16.2H73.8316V19.56H66.7516L66.6316 22.56C66.7996 22.44 67.0156 22.344 67.2796 22.272C67.6876 22.104 68.2876 21.96 69.0316 21.96C72.5116 21.96 74.9116 24.336 74.9116 27.6C74.9116 30.84 72.3916 33.36 68.5516 33.36C66.4396 33.36 64.8556 32.712 63.7996 32.04C63.1756 31.656 62.6476 31.224 62.1916 30.72ZM76.7228 27.48V24.48H80.8028V20.4H83.5628V24.48H87.6428V27.48H83.5628V31.56H80.8028V27.48H76.7228Z" fill="white"/>
<path d="M44.5455 46.6554L46.0727 48.1827C45.752 48.5798 45.3702 48.9311 44.9273 49.2518C44.1484 49.7863 43.0182 50.3209 41.4909 50.3209C38.192 50.3209 35.6873 47.8009 35.6873 44.7463C35.6873 41.6918 38.192 39.1718 41.4909 39.1718C42.9724 39.1718 44.1178 39.7063 44.8662 40.2409C45.3091 40.5616 45.6756 40.9129 45.9964 41.31L44.4691 42.8373C44.24 42.5471 43.9804 42.3027 43.6902 42.0736C43.1862 41.6918 42.4531 41.31 41.4909 41.31C39.5818 41.31 38.0545 42.8373 38.0545 44.7463C38.0545 46.6554 39.5818 48.1827 41.4909 48.1827C42.4836 48.1827 43.232 47.8009 43.7665 47.4191C44.072 47.19 44.3316 46.9456 44.5455 46.6554ZM50.7363 48.3354C51.8054 48.3354 52.6454 47.4954 52.6454 46.35C52.6454 45.2045 51.8054 44.3645 50.7363 44.3645C49.6672 44.3645 48.8272 45.2045 48.8272 46.35C48.8272 47.4954 49.6672 48.3354 50.7363 48.3354ZM46.7654 46.35C46.7654 44.2118 48.5217 42.4554 50.7363 42.4554C52.9508 42.4554 54.7072 44.2118 54.7072 46.35C54.7072 48.4882 52.9508 50.2445 50.7363 50.2445C48.5217 50.2445 46.7654 48.4882 46.7654 46.35ZM56.2321 47.1136V42.6082H58.2939V46.8082C58.2939 47.7245 58.8132 48.2591 59.6684 48.2591C60.5848 48.2591 61.2721 47.5718 61.2721 46.5791V42.6082H63.3339V50.0918H61.2721V49.0227H61.1957C61.0277 49.2518 60.8444 49.4503 60.6306 49.6336C60.2641 49.9391 59.699 50.2445 58.9812 50.2445C57.4539 50.2445 56.2321 49.0227 56.2321 47.1136ZM65.3152 50.0918V42.6082H67.377V43.6773H67.4534C67.6214 43.4482 67.8046 43.2496 68.0184 43.0663C68.385 42.7609 68.9348 42.4554 69.6679 42.4554C71.1952 42.4554 72.417 43.6773 72.417 45.5863V50.0918H70.3552V45.8918C70.3552 44.9754 69.8359 44.4409 68.9806 44.4409C68.0643 44.4409 67.377 45.1282 67.377 46.1209V50.0918H65.3152ZM74.86 47.4954V44.67H73.5618V42.7609H74.2491C74.8142 42.7609 75.0891 42.4554 75.0891 41.8445V40.47H76.9218V42.7609H78.6018V44.67H76.9218V47.19C76.9218 47.8773 77.3037 48.2591 77.9146 48.2591C78.1437 48.2591 78.3422 48.2285 78.5102 48.1827C78.6018 48.1674 78.6782 48.1369 78.7546 48.1063V50.0154C78.6324 50.0613 78.4949 50.0918 78.3575 50.1376C78.1131 50.1987 77.7618 50.2445 77.38 50.2445C75.8528 50.2445 74.86 49.2671 74.86 47.4954ZM80.3642 50.0918V42.6082H82.426V43.6773H82.5024C82.6704 43.4482 82.8536 43.2496 83.0674 43.0663C83.434 42.7609 83.9838 42.4554 84.7169 42.4554H84.8696V44.67L84.7016 44.6394C84.5794 44.6242 84.4114 44.5936 84.1824 44.5936C83.1896 44.5936 82.426 45.3573 82.426 46.5791V50.0918H80.3642ZM86.166 50.0918V42.6082H88.2278V50.0918H86.166ZM86.0133 40.47C86.0133 39.8591 86.5478 39.3245 87.2046 39.3245C87.8613 39.3245 88.3806 39.8591 88.3806 40.47C88.3806 41.0809 87.846 41.6154 87.1893 41.6154C86.5326 41.6154 86.0133 41.0809 86.0133 40.47ZM95.8588 47.5718L96.9279 49.0227C96.6988 49.2518 96.4239 49.4503 96.1032 49.6336C95.5534 49.9391 94.7592 50.2445 93.7207 50.2445C91.5061 50.2445 89.7497 48.4882 89.7497 46.35C89.7497 44.2118 91.5061 42.4554 93.6443 42.4554C95.7061 42.4554 97.3861 44.1354 97.3861 46.1973C97.3861 46.4874 97.3556 46.686 97.3403 46.854L97.3097 47.1136H91.8879C92.117 47.8009 92.7279 48.4118 93.8734 48.4118C94.5301 48.4118 95.0036 48.2285 95.3548 47.9994C95.5534 47.8773 95.7214 47.7398 95.8588 47.5718ZM91.8879 45.5863H95.2479C95.0188 44.8991 94.4232 44.2882 93.5679 44.2882C92.7127 44.2882 92.117 44.8991 91.8879 45.5863ZM98.1545 48.87L99.3763 47.5718C99.5291 47.7398 99.7123 47.8773 99.9109 47.9994C100.262 48.2285 100.751 48.4118 101.362 48.4118C102.049 48.4118 102.278 48.1827 102.278 47.8773C102.278 47.0373 98.46 47.19 98.46 44.7463C98.46 43.5245 99.5291 42.4554 101.438 42.4554C102.4 42.4554 103.118 42.7456 103.607 43.0358C103.897 43.2038 104.141 43.4023 104.34 43.6009L103.118 44.8991C102.996 44.7922 102.843 44.6853 102.675 44.5936C102.385 44.4256 101.973 44.2882 101.438 44.2882C100.904 44.2882 100.675 44.5173 100.675 44.7463C100.675 45.5863 104.493 45.4336 104.493 47.8773C104.493 49.1602 103.424 50.2445 101.362 50.2445C100.323 50.2445 99.5291 49.9085 98.9792 49.5573C98.6585 49.3587 98.3836 49.1296 98.1545 48.87Z" fill="white"/>
<defs>
<filter id="filter0_f_117_374" x="0" y="0" width="140" height="91" filterUnits="userSpaceOnUse" color-interpolation-filters="sRGB">
<feFlood flood-opacity="0" result="BackgroundImageFix"/>
<feBlend mode="normal" in="SourceGraphic" in2="BackgroundImageFix" result="shape"/>
<feGaussianBlur stdDeviation="12" result="effect1_foregroundBlur_117_374"/>
</filter>
<filter id="filter1_f_117_374" x="0" y="0" width="140" height="91" filterUnits="userSpaceOnUse" color-interpolation-filters="sRGB">
<feFlood flood-opacity="0" result="BackgroundImageFix"/>
<feBlend mode="normal" in="SourceGraphic" in2="BackgroundImageFix" result="shape"/>
<feGaussianBlur stdDeviation="12" result="effect1_foregroundBlur_117_374"/>
</filter>
<linearGradient id="paint0_linear_117_374" x1="34.5" y1="9.65169" x2="137.565" y2="180.558" gradientUnits="userSpaceOnUse">
<stop stop-color="#FDA24C"/>
<stop offset="0.303586" stop-color="#EF43AD"/>
<stop offset="0.48364" stop-color="#9C25C4"/>
</linearGradient>
<linearGradient id="paint1_linear_117_374" x1="136.999" y1="7.31731" x2="-19.9485" y2="47.0607" gradientUnits="userSpaceOnUse">
<stop stop-color="#FDD153"/>
<stop offset="0.501961" stop-color="#D9155C"/>
<stop offset="1" stop-color="#09CFF9"/>
</linearGradient>
</defs>
</svg>
