<svg width="1420" height="800" viewBox="0 0 1420 800" fill="none" xmlns="http://www.w3.org/2000/svg">
<mask id="mask0_129_324" style="mask-type:luminance" maskUnits="userSpaceOnUse" x="0" y="0" width="1420" height="800">
<path d="M1420 0H0V800H1420V0Z" fill="white"/>
</mask>
<g mask="url(#mask0_129_324)">
<path d="M72.999 -16.25L146.25 57.001L48.25 155.001L72.999 179.75L170.999 81.75L195.748 57.001L293.748 -40.999L268.999 -65.748L170.999 32.252L97.748 -40.999L72.999 -65.748L48.25 -40.999L-49.75 57.001L-25.001 81.75L72.999 -16.25Z" fill="white" fill-opacity="0.03"/>
<path d="M832.25 57.001L734.25 155.001L758.999 179.75L881.748 57.001L979.748 -40.999L954.999 -65.748L832.25 57.001Z" fill="white" fill-opacity="0.03"/>
<path d="M1028.25 57.001L930.25 155.001L832.25 253.001L856.999 277.75L979.748 155.001L1077.75 57.001L1175.75 -40.999L1151 -65.748L1028.25 57.001Z" fill="white" fill-opacity="0.03"/>
<path d="M1469.75 -40.999L1445 -65.748L1322.25 57.001L1420.25 155.001L1322.25 253.001L1224.25 351.001L1151 424.252L1077.75 351.001L1175.75 253.001L1273.75 155.001L1249 130.252L1126.25 253.001L1028.25 351.001L1126.25 449.001L1053 522.252L1028.25 547.001L930.25 645.001L954.999 669.75L1053 571.75L1077.75 547.001L1151 473.75L1175.75 449.001L1273.75 351.001L1371.75 253.001L1469.75 155.001L1371.75 57.001L1469.75 -40.999Z" fill="white" fill-opacity="0.03"/>
<path d="M1322.25 351.001L1249 424.252L1151 522.252L1126.25 547.001L1053 620.252L1028.25 645.001L954.999 718.252L881.748 645.001L954.999 571.75L979.748 547.001L1053 473.75L1077.75 449.001L1053 424.252L979.748 351.001L1077.75 253.001L1175.75 155.001L1249 81.75L1322.25 155.001L1224.25 253.001L1126.25 351.001L1151 375.75L1273.75 253.001L1371.75 155.001L1273.75 57.001L1371.75 -40.999L1347 -65.748L1224.25 57.001L1126.25 155.001L1028.25 253.001L930.25 351.001L856.999 424.252L734.25 547.001L660.999 620.252L562.999 718.252L440.25 841.001L464.999 865.75L562.999 767.75L660.999 865.75L758.999 767.75L783.748 743.001L856.999 669.75L930.25 743.001L954.999 767.75L979.748 743.001L1053 669.75L1077.75 645.001L1151 571.75L1175.75 547.001L1249 473.75L1273.75 449.001L1371.75 351.001L1469.75 253.001L1445 228.252L1322.25 351.001ZM832.25 645.001L734.25 743.001L660.999 816.252L587.748 743.001L660.999 669.75L758.999 571.75L783.748 547.001L856.999 473.75L881.748 449.001L954.999 375.75L1028.25 449.001L954.999 522.252L930.25 547.001L856.999 620.252L832.25 645.001Z" fill="white" fill-opacity="0.03"/>
<path d="M1347 424.252L1249 522.252L1224.25 547.001L1151 620.252L1126.25 645.001L1053 718.252L1028.25 743.001L954.999 816.252L881.748 743.001L856.999 718.252L832.25 743.001L734.25 841.001L758.999 865.75L856.999 767.75L930.25 841.001L954.999 865.75L979.748 841.001L1053 767.75L1077.75 743.001L1151 669.75L1175.75 645.001L1249 571.75L1273.75 547.001L1347 473.75L1371.75 449.001L1469.75 351.001L1445 326.252L1347 424.252Z" fill="white" fill-opacity="0.03"/>
<path d="M72.999 571.75L170.999 473.75L293.748 351.001L391.748 253.001L366.999 228.252L268.999 326.252L195.748 253.001L268.999 179.75L293.748 155.001L391.748 57.001L366.999 32.252L268.999 130.252L244.25 155.001L170.999 228.252L146.25 253.001L48.25 351.001L72.999 375.75L170.999 277.75L244.25 351.001L170.999 424.252L72.999 522.252L-49.75 645.001L-25.001 669.75L72.999 571.75Z" fill="white" fill-opacity="0.03"/>
<path d="M660.999 473.75L783.748 351.001L758.999 326.252L660.999 424.252L538.25 547.001L562.999 571.75L660.999 473.75Z" fill="white" fill-opacity="0.03"/>
<path d="M1347 522.252L1322.25 547.001L1249 620.252L1224.25 645.001L1151 718.252L1126.25 743.001L1028.25 841.001L1053 865.75L1151 767.75L1175.75 743.001L1249 669.75L1273.75 645.001L1347 571.75L1371.75 547.001L1469.75 449.001L1445 424.252L1347 522.252Z" fill="white" fill-opacity="0.03"/>
<path d="M881.748 547.001L979.748 449.001L954.999 424.252L856.999 522.252L832.25 547.001L734.25 645.001L636.25 743.001L660.999 767.75L758.999 669.75L783.748 645.001L856.999 571.75L881.748 547.001Z" fill="white" fill-opacity="0.03"/>
<path d="M1347 620.252L1322.25 645.001L1249 718.252L1224.25 743.001L1126.25 841.001L1151 865.75L1249 767.75L1273.75 743.001L1347 669.75L1371.75 645.001L1469.75 547.001L1445 522.252L1347 620.252Z" fill="white" fill-opacity="0.03"/>
<path d="M72.999 669.75L170.999 571.75L268.999 473.75L342.25 547.001L244.25 645.001L268.999 669.75L366.999 571.75L391.748 547.001L366.999 522.252L293.748 449.001L391.748 351.001L464.999 277.75L489.748 253.001L562.999 179.75L636.25 253.001L538.25 351.001L562.999 375.75L660.999 277.75L685.748 253.001L660.999 228.252L587.748 155.001L685.748 57.001L660.999 32.252L562.999 130.252L489.748 57.001L587.748 -40.999L562.999 -65.748L464.999 32.252L391.748 -40.999L366.999 -65.748L342.25 -40.999L268.999 32.252L244.25 57.001L170.999 130.252L146.25 155.001L72.999 228.252L-0.251999 155.001L97.748 57.001L72.999 32.252L-25.001 130.252L-49.75 155.001L-25.001 179.75L48.25 253.001L-25.001 326.252L-49.75 351.001L48.25 449.001L-49.75 547.001L-25.001 571.75L72.999 473.75L195.748 351.001L170.999 326.252L72.999 424.252L-0.251999 351.001L72.999 277.75L97.748 253.001L170.999 179.75L195.748 155.001L268.999 81.75L293.748 57.001L366.999 -16.25L440.25 57.001L366.999 130.252L342.25 155.001L244.25 253.001L268.999 277.75L366.999 179.75L440.25 253.001L366.999 326.252L342.25 351.001L268.999 424.252L170.999 522.252L72.999 620.252L-49.75 743.001L-25.001 767.75L72.999 669.75ZM391.748 155.001L464.999 81.75L538.25 155.001L464.999 228.252L391.748 155.001Z" fill="white" fill-opacity="0.03"/>
<path d="M366.999 767.75L489.748 645.001L464.999 620.252L366.999 718.252L244.25 841.001L268.999 865.75L366.999 767.75Z" fill="white" fill-opacity="0.03"/>
<path d="M464.999 767.75L562.999 669.75L660.999 571.75L758.999 473.75L783.748 449.001L881.748 351.001L979.748 253.001L1077.75 155.001L1175.75 57.001L1273.75 -40.999L1249 -65.748L1126.25 57.001L1028.25 155.001L930.25 253.001L856.999 326.252L783.748 253.001L881.748 155.001L979.748 57.001L1077.75 -40.999L1053 -65.748L930.25 57.001L832.25 155.001L758.999 228.252L685.748 155.001L783.748 57.001L881.748 -40.999L856.999 -65.748L758.999 32.252L660.999 -65.748L636.25 -40.999L538.25 57.001L562.999 81.75L660.999 -16.25L734.25 57.001L660.999 130.252L636.25 155.001L660.999 179.75L734.25 253.001L660.999 326.252L636.25 351.001L562.999 424.252L489.748 351.001L587.748 253.001L562.999 228.252L464.999 326.252L440.25 351.001L366.999 424.252L342.25 449.001L366.999 473.75L440.25 547.001L366.999 620.252L268.999 718.252L195.748 645.001L293.748 547.001L268.999 522.252L170.999 620.252L72.999 718.252L-49.75 841.001L-25.001 865.75L72.999 767.75L170.999 669.75L244.25 743.001L146.25 841.001L170.999 865.75L268.999 767.75L366.999 669.75L464.999 571.75L538.25 645.001L464.999 718.252L342.25 841.001L366.999 865.75L464.999 767.75ZM391.748 449.001L464.999 375.75L538.25 449.001L464.999 522.252L391.748 449.001ZM489.748 547.001L562.999 473.75L673.373 363.375L758.999 277.75L832.25 351.001L758.999 424.252L746.624 436.627L734.25 449.001L660.999 522.252L562.999 620.252L489.748 547.001Z" fill="white" fill-opacity="0.03"/>
<path d="M1347 718.252L1322.25 743.001L1224.25 841.001L1249 865.75L1347 767.75L1371.75 743.001L1469.75 645.001L1445 620.252L1347 718.252Z" fill="white" fill-opacity="0.03"/>
<path d="M170.992 718.248L48.2441 840.996L72.9926 865.745L195.74 742.997L170.992 718.248Z" fill="white" fill-opacity="0.03"/>
<path d="M1444.98 718.258L1322.23 841.006L1346.98 865.754L1469.73 743.007L1444.98 718.258Z" fill="white" fill-opacity="0.03"/>
</g>
</svg>
