<svg width="94" height="31" viewBox="0 0 94 31" fill="none" xmlns="http://www.w3.org/2000/svg">
<g clip-path="url(#clip0_117_397)">
<path d="M12.8672 17.4395C16.2306 18.7736 18.5617 21.0336 20.6146 23.8853C22.6439 21.0573 24.9809 18.6937 28.4183 17.4395V30.2424H12.8672V17.4395Z" fill="white"/>
<path d="M87.3548 7.65215V11.3558C83.947 10.3352 80.5925 9.49805 78.1638 13.0686C76.8356 15.018 76.877 18.198 78.3472 20.0409C80.8705 23.1973 84.0742 22.2803 87.3282 21.1828V24.6527C84.3316 26.7234 78.0248 25.9928 75.1701 23.2091C72.4723 20.5764 72.0227 14.6837 74.2531 11.2138C76.9125 7.07827 82.113 5.94234 87.3519 7.6492L87.3548 7.65215Z" fill="white"/>
<path d="M57.9508 21.2175C57.9597 22.5605 58.0898 23.6816 57.8828 24.7732C53.8804 26.5777 47.0174 26.2138 44.5947 21.5961C41.6987 16.0762 44.1243 7.08339 52.9515 6.94436C54.617 6.91774 56.2883 6.86449 57.8916 7.60403C58.0425 8.8435 58.0188 10.0534 57.9005 11.3284C54.6406 10.2989 51.434 9.60375 48.9876 12.7779C47.4789 14.7362 47.4552 18.0789 48.9698 19.9958C51.4695 23.1581 54.6761 22.2943 57.9508 21.2116V21.2175Z" fill="white"/>
<path d="M61.3105 7.29429C62.7127 7.21146 64.0173 7.16413 65.4461 7.34458V22.0259H72.3238V25.3302H61.3105V7.29429Z" fill="white"/>
<path d="M25.215 15.1478C24.3631 13.0977 25.4339 11.0359 24.9665 8.9297C24.0377 9.44738 24.9103 10.3822 24.2447 11.0418C23.0763 11.1306 21.8191 11.5713 20.6003 12.2369C19.4052 11.6098 18.145 11.1809 16.876 11.0093C16.4559 10.3762 16.8138 9.74615 16.6186 9.07465C15.8909 8.82025 15.1129 8.54514 13.9355 8.13395C16.3376 7.27608 18.4024 6.51879 20.482 5.80884C20.9346 5.65501 21.3842 5.93012 21.8191 6.09578C23.4993 6.74362 25.1854 7.38258 26.9101 8.04225C26.5551 8.62797 25.9131 8.44752 25.5878 8.81137C24.934 10.8998 26.2593 13.0978 25.2121 15.1448L25.215 15.1478Z" fill="white"/>
<path d="M9.61158 30.2966H5.42578V19.2656C6.97882 19.4816 8.40465 19.9223 9.61158 20.9902V30.2966Z" fill="white"/>
<path d="M35.8292 30.2376C34.4063 30.4092 33.0811 30.3441 31.6582 30.2583V21.0052C32.7291 19.884 34.2466 19.6503 35.8292 19.1504V30.2376Z" fill="white"/>
<path d="M16.8321 11.8708C18.2431 11.7495 19.3495 12.3707 20.5386 12.9328C21.7752 12.495 22.9555 11.6134 24.4198 11.9211C24.9049 13.8084 24.4168 15.2697 23.0028 16.2223C21.571 17.1896 19.7074 17.1837 18.2816 16.2045C16.8498 15.2224 16.3558 13.7818 16.8321 11.8678V11.8708Z" fill="white"/>
<path d="M38.1426 30.2761V23.1173C39.104 22.3896 40.0772 22.0346 41.2694 21.8867V30.279H38.1426V30.2761Z" fill="white"/>
<path d="M3.06762 23.1017V30.2575H0V21.9717C1.20101 21.9096 2.13284 22.445 3.06762 23.1017Z" fill="white"/>
<path d="M82.9234 0.832377V0.555049H84.8596V0.832377H84.0478V3.13672H83.7352V0.832377H82.9234ZM85.3421 0.555049H85.7153L86.5926 2.69804H86.6229L87.5002 0.555049H87.8734V3.13672H87.5809V1.17525H87.5557L86.7489 3.13672H86.4666L85.6598 1.17525H85.6346V3.13672H85.3421V0.555049Z" fill="white"/>
<path d="M46.1073 30.8891C45.9121 30.8891 45.7441 30.843 45.6031 30.7508C45.4621 30.6587 45.3537 30.5317 45.2778 30.3699C45.2019 30.2082 45.1639 30.0234 45.1639 29.8156C45.1639 29.6041 45.2028 29.4175 45.2805 29.2558C45.3591 29.0931 45.4685 28.9662 45.6085 28.8749C45.7495 28.7827 45.9139 28.7366 46.1019 28.7366C46.2483 28.7366 46.3802 28.7637 46.4977 28.818C46.6152 28.8722 46.7114 28.9481 46.7864 29.0457C46.8614 29.1433 46.9079 29.2571 46.926 29.3872H46.6061C46.5817 29.2924 46.5275 29.2083 46.4435 29.1351C46.3603 29.061 46.2483 29.024 46.1073 29.024C45.9826 29.024 45.8733 29.0565 45.7793 29.1216C45.6862 29.1857 45.6135 29.2766 45.5611 29.394C45.5096 29.5106 45.4838 29.6475 45.4838 29.8047C45.4838 29.9656 45.5091 30.1056 45.5597 30.2249C45.6112 30.3442 45.6835 30.4368 45.7766 30.5028C45.8706 30.5687 45.9808 30.6017 46.1073 30.6017C46.1905 30.6017 46.2659 30.5873 46.3337 30.5583C46.4015 30.5294 46.4588 30.4879 46.5058 30.4336C46.5528 30.3794 46.5862 30.3144 46.6061 30.2385H46.926C46.9079 30.3614 46.8632 30.4721 46.7918 30.5705C46.7213 30.6681 46.6278 30.7459 46.5112 30.8037C46.3956 30.8606 46.2609 30.8891 46.1073 30.8891ZM47.3936 30.8457V28.7637H47.7027V29.0782H47.7244C47.7623 28.9752 47.831 28.8916 47.9304 28.8274C48.0298 28.7633 48.1418 28.7312 48.2665 28.7312C48.29 28.7312 48.3194 28.7317 48.3546 28.7326C48.3899 28.7335 48.4165 28.7348 48.4346 28.7366V29.0619C48.4238 29.0592 48.3989 29.0552 48.3601 29.0497C48.3221 29.0434 48.2819 29.0403 48.2394 29.0403C48.1382 29.0403 48.0479 29.0615 47.9683 29.104C47.8897 29.1455 47.8274 29.2034 47.7813 29.2775C47.7361 29.3506 47.7135 29.4342 47.7135 29.5282V30.8457H47.3936ZM49.6233 30.8891C49.4227 30.8891 49.2497 30.8448 49.1042 30.7562C48.9596 30.6668 48.848 30.5421 48.7694 30.3821C48.6917 30.2213 48.6528 30.0342 48.6528 29.821C48.6528 29.6077 48.6917 29.4198 48.7694 29.2571C48.848 29.0936 48.9574 28.9662 49.0974 28.8749C49.2384 28.7827 49.4029 28.7366 49.5908 28.7366C49.6992 28.7366 49.8063 28.7547 49.9121 28.7908C50.0178 28.827 50.114 28.8857 50.2008 28.9671C50.2875 29.0475 50.3566 29.1541 50.4081 29.2869C50.4597 29.4198 50.4854 29.5833 50.4854 29.7776V29.9132H48.8806V29.6366H50.1601C50.1601 29.5192 50.1366 29.4144 50.0896 29.3222C50.0435 29.23 49.9776 29.1573 49.8917 29.104C49.8068 29.0506 49.7065 29.024 49.5908 29.024C49.4634 29.024 49.3532 29.0556 49.2601 29.1189C49.1679 29.1812 49.097 29.2625 49.0473 29.3628C48.9976 29.4632 48.9727 29.5707 48.9727 29.6854V29.8698C48.9727 30.027 48.9998 30.1603 49.0541 30.2696C49.1092 30.3781 49.1855 30.4608 49.2831 30.5177C49.3807 30.5737 49.4941 30.6017 49.6233 30.6017C49.7074 30.6017 49.7833 30.59 49.8511 30.5665C49.9197 30.5421 49.9789 30.5059 50.0286 30.458C50.0783 30.4093 50.1167 30.3487 50.1438 30.2764L50.4529 30.3632C50.4203 30.468 50.3657 30.5602 50.2889 30.6397C50.2121 30.7183 50.1172 30.7797 50.0042 30.824C49.8913 30.8674 49.7643 30.8891 49.6233 30.8891ZM51.5847 30.8945C51.4527 30.8945 51.333 30.8696 51.2255 30.8199C51.1179 30.7693 51.0326 30.6966 50.9693 30.6017C50.906 30.5059 50.8744 30.3903 50.8744 30.2547C50.8744 30.1355 50.8979 30.0388 50.9449 29.9647C50.9919 29.8897 51.0547 29.8309 51.1333 29.7885C51.2119 29.746 51.2987 29.7144 51.3936 29.6936C51.4893 29.6719 51.5856 29.6547 51.6823 29.6421C51.8088 29.6258 51.9113 29.6136 51.99 29.6055C52.0695 29.5964 52.1273 29.5815 52.1634 29.5607C52.2005 29.54 52.219 29.5038 52.219 29.4523V29.4415C52.219 29.3077 52.1824 29.2038 52.1092 29.1297C52.0369 29.0556 51.9271 29.0186 51.7799 29.0186C51.6271 29.0186 51.5074 29.052 51.4207 29.1189C51.3339 29.1857 51.2729 29.2571 51.2377 29.333L50.9341 29.2246C50.9883 29.0981 51.0606 28.9996 51.1509 28.9291C51.2422 28.8577 51.3416 28.808 51.4491 28.78C51.5576 28.7511 51.6642 28.7366 51.769 28.7366C51.8359 28.7366 51.9127 28.7448 51.9994 28.761C52.0871 28.7764 52.1716 28.8085 52.2529 28.8573C52.3351 28.9061 52.4034 28.9797 52.4576 29.0782C52.5118 29.1767 52.5389 29.3086 52.5389 29.474V30.8457H52.219V30.5638H52.2028C52.1811 30.609 52.1449 30.6573 52.0943 30.7088C52.0437 30.7603 51.9764 30.8041 51.8924 30.8403C51.8083 30.8764 51.7058 30.8945 51.5847 30.8945ZM51.6335 30.6071C51.76 30.6071 51.8666 30.5823 51.9534 30.5326C52.041 30.4829 52.107 30.4187 52.1512 30.3401C52.1964 30.2615 52.219 30.1788 52.219 30.0921V29.7993C52.2055 29.8156 52.1756 29.8305 52.1296 29.844C52.0844 29.8567 52.032 29.868 51.9723 29.8779C51.9136 29.887 51.8562 29.8951 51.8002 29.9023C51.7451 29.9086 51.7003 29.9141 51.666 29.9186C51.5829 29.9294 51.5052 29.947 51.4329 29.9714C51.3615 29.9949 51.3036 30.0306 51.2594 30.0785C51.216 30.1255 51.1943 30.1897 51.1943 30.271C51.1943 30.3821 51.2354 30.4662 51.3177 30.5231C51.4008 30.5791 51.5061 30.6071 51.6335 30.6071ZM54.0282 28.7637V29.0348H52.9493V28.7637H54.0282ZM53.2637 28.2649H53.5836V30.2493C53.5836 30.3397 53.5967 30.4074 53.6229 30.4526C53.65 30.4969 53.6844 30.5267 53.7259 30.5421C53.7684 30.5565 53.8131 30.5638 53.8601 30.5638C53.8954 30.5638 53.9243 30.562 53.9469 30.5583C53.9695 30.5538 53.9875 30.5502 54.0011 30.5475L54.0662 30.8349C54.0445 30.843 54.0142 30.8511 53.9753 30.8593C53.9365 30.8683 53.8872 30.8728 53.8276 30.8728C53.7372 30.8728 53.6487 30.8534 53.5619 30.8145C53.4761 30.7757 53.4047 30.7165 53.3478 30.637C53.2917 30.5574 53.2637 30.4571 53.2637 30.3361V28.2649ZM54.5094 30.8457V28.7637H54.8293V30.8457H54.5094ZM54.672 28.4167C54.6097 28.4167 54.5559 28.3955 54.5107 28.353C54.4665 28.3106 54.4443 28.2595 54.4443 28.1999C54.4443 28.1402 54.4665 28.0892 54.5107 28.0467C54.5559 28.0042 54.6097 27.983 54.672 27.983C54.7344 27.983 54.7877 28.0042 54.832 28.0467C54.8772 28.0892 54.8997 28.1402 54.8997 28.1999C54.8997 28.2595 54.8772 28.3106 54.832 28.353C54.7877 28.3955 54.7344 28.4167 54.672 28.4167ZM57.1176 28.7637L56.3477 30.8457H56.0224L55.2525 28.7637H55.5995L56.1742 30.4228H56.1959L56.7706 28.7637H57.1176ZM58.3382 30.8891C58.1376 30.8891 57.9645 30.8448 57.819 30.7562C57.6745 30.6668 57.5629 30.5421 57.4842 30.3821C57.4065 30.2213 57.3677 30.0342 57.3677 29.821C57.3677 29.6077 57.4065 29.4198 57.4842 29.2571C57.5629 29.0936 57.6722 28.9662 57.8123 28.8749C57.9532 28.7827 58.1177 28.7366 58.3056 28.7366C58.4141 28.7366 58.5212 28.7547 58.6269 28.7908C58.7326 28.827 58.8288 28.8857 58.9156 28.9671C59.0023 29.0475 59.0715 29.1541 59.123 29.2869C59.1745 29.4198 59.2002 29.5833 59.2002 29.7776V29.9132H57.5954V29.6366H58.8749C58.8749 29.5192 58.8514 29.4144 58.8044 29.3222C58.7584 29.23 58.6924 29.1573 58.6066 29.104C58.5216 29.0506 58.4213 29.024 58.3056 29.024C58.1782 29.024 58.068 29.0556 57.9749 29.1189C57.8827 29.1812 57.8118 29.2625 57.7621 29.3628C57.7124 29.4632 57.6876 29.5707 57.6876 29.6854V29.8698C57.6876 30.027 57.7147 30.1603 57.7689 30.2696C57.824 30.3781 57.9004 30.4608 57.998 30.5177C58.0955 30.5737 58.209 30.6017 58.3382 30.6017C58.4222 30.6017 58.4981 30.59 58.5659 30.5665C58.6346 30.5421 58.6938 30.5059 58.7435 30.458C58.7932 30.4093 58.8316 30.3487 58.8587 30.2764L59.1677 30.3632C59.1352 30.468 59.0805 30.5602 59.0037 30.6397C58.9269 30.7183 58.832 30.7797 58.7191 30.824C58.6061 30.8674 58.4791 30.8891 58.3382 30.8891ZM61.0802 28.0698V30.8457H60.7604V28.0698H61.0802ZM62.539 30.8891C62.3384 30.8891 62.1654 30.8448 62.0199 30.7562C61.8753 30.6668 61.7637 30.5421 61.6851 30.3821C61.6074 30.2213 61.5685 30.0342 61.5685 29.821C61.5685 29.6077 61.6074 29.4198 61.6851 29.2571C61.7637 29.0936 61.8731 28.9662 62.0131 28.8749C62.1541 28.7827 62.3185 28.7366 62.5065 28.7366C62.6149 28.7366 62.722 28.7547 62.8277 28.7908C62.9335 28.827 63.0297 28.8857 63.1165 28.9671C63.2032 29.0475 63.2723 29.1541 63.3238 29.2869C63.3753 29.4198 63.4011 29.5833 63.4011 29.7776V29.9132H61.7962V29.6366H63.0758C63.0758 29.5192 63.0523 29.4144 63.0053 29.3222C62.9592 29.23 62.8933 29.1573 62.8074 29.104C62.7225 29.0506 62.6222 29.024 62.5065 29.024C62.3791 29.024 62.2688 29.0556 62.1758 29.1189C62.0836 29.1812 62.0127 29.2625 61.963 29.3628C61.9133 29.4632 61.8884 29.5707 61.8884 29.6854V29.8698C61.8884 30.027 61.9155 30.1603 61.9697 30.2696C62.0249 30.3781 62.1012 30.4608 62.1988 30.5177C62.2964 30.5737 62.4098 30.6017 62.539 30.6017C62.6231 30.6017 62.699 30.59 62.7667 30.5665C62.8354 30.5421 62.8946 30.5059 62.9443 30.458C62.994 30.4093 63.0324 30.3487 63.0595 30.2764L63.3686 30.3632C63.336 30.468 63.2814 30.5602 63.2046 30.6397C63.1277 30.7183 63.0329 30.7797 62.9199 30.824C62.807 30.8674 62.68 30.8891 62.539 30.8891ZM64.5004 30.8945C64.3684 30.8945 64.2487 30.8696 64.1412 30.8199C64.0336 30.7693 63.9482 30.6966 63.885 30.6017C63.8217 30.5059 63.7901 30.3903 63.7901 30.2547C63.7901 30.1355 63.8136 30.0388 63.8606 29.9647C63.9076 29.8897 63.9704 29.8309 64.049 29.7885C64.1276 29.746 64.2144 29.7144 64.3092 29.6936C64.405 29.6719 64.5013 29.6547 64.598 29.6421C64.7245 29.6258 64.827 29.6136 64.9056 29.6055C64.9852 29.5964 65.043 29.5815 65.0791 29.5607C65.1162 29.54 65.1347 29.5038 65.1347 29.4523V29.4415C65.1347 29.3077 65.0981 29.2038 65.0249 29.1297C64.9526 29.0556 64.8428 29.0186 64.6955 29.0186C64.5428 29.0186 64.4231 29.052 64.3364 29.1189C64.2496 29.1857 64.1886 29.2571 64.1534 29.333L63.8497 29.2246C63.904 29.0981 63.9763 28.9996 64.0666 28.9291C64.1579 28.8577 64.2573 28.808 64.3648 28.78C64.4733 28.7511 64.5799 28.7366 64.6847 28.7366C64.7516 28.7366 64.8284 28.7448 64.9151 28.761C65.0028 28.7764 65.0873 28.8085 65.1686 28.8573C65.2508 28.9061 65.319 28.9797 65.3733 29.0782C65.4275 29.1767 65.4546 29.3086 65.4546 29.474V30.8457H65.1347V30.5638H65.1184C65.0968 30.609 65.0606 30.6573 65.01 30.7088C64.9594 30.7603 64.8921 30.8041 64.808 30.8403C64.724 30.8764 64.6214 30.8945 64.5004 30.8945ZM64.5492 30.6071C64.6757 30.6071 64.7823 30.5823 64.869 30.5326C64.9567 30.4829 65.0227 30.4187 65.0669 30.3401C65.1121 30.2615 65.1347 30.1788 65.1347 30.0921V29.7993C65.1212 29.8156 65.0913 29.8305 65.0452 29.844C65.0001 29.8567 64.9477 29.868 64.888 29.8779C64.8293 29.887 64.7719 29.8951 64.7159 29.9023C64.6608 29.9086 64.616 29.9141 64.5817 29.9186C64.4986 29.9294 64.4208 29.947 64.3485 29.9714C64.2772 29.9949 64.2193 30.0306 64.1751 30.0785C64.1317 30.1255 64.11 30.1897 64.11 30.271C64.11 30.3821 64.1511 30.4662 64.2333 30.5231C64.3165 30.5791 64.4217 30.6071 64.5492 30.6071ZM66.0385 30.8457V28.7637H66.3475V29.0782H66.3692C66.4071 28.9752 66.4758 28.8916 66.5752 28.8274C66.6746 28.7633 66.7867 28.7312 66.9114 28.7312C66.9349 28.7312 66.9642 28.7317 66.9995 28.7326C67.0347 28.7335 67.0614 28.7348 67.0794 28.7366V29.0619C67.0686 29.0592 67.0437 29.0552 67.0049 29.0497C66.9669 29.0434 66.9267 29.0403 66.8842 29.0403C66.783 29.0403 66.6927 29.0615 66.6132 29.104C66.5345 29.1455 66.4722 29.2034 66.4261 29.2775C66.3809 29.3506 66.3583 29.4342 66.3583 29.5282V30.8457H66.0385ZM67.7785 29.5933V30.8457H67.4586V28.7637H67.7677V29.089H67.7948C67.8436 28.9833 67.9177 28.8984 68.0171 28.8342C68.1165 28.7692 68.2448 28.7366 68.402 28.7366C68.543 28.7366 68.6663 28.7655 68.772 28.8234C68.8778 28.8803 68.96 28.9671 69.0187 29.0836C69.0775 29.1993 69.1068 29.3457 69.1068 29.5228V30.8457H68.787V29.5445C68.787 29.3809 68.7445 29.2535 68.6595 29.1622C68.5746 29.0701 68.458 29.024 68.3098 29.024C68.2077 29.024 68.1165 29.0461 68.036 29.0904C67.9565 29.1347 67.8937 29.1993 67.8476 29.2842C67.8015 29.3692 67.7785 29.4722 67.7785 29.5933ZM69.6914 30.8457V28.7637H70.0113V30.8457H69.6914ZM69.854 28.4167C69.7917 28.4167 69.7379 28.3955 69.6927 28.353C69.6484 28.3106 69.6263 28.2595 69.6263 28.1999C69.6263 28.1402 69.6484 28.0892 69.6927 28.0467C69.7379 28.0042 69.7917 27.983 69.854 27.983C69.9164 27.983 69.9697 28.0042 70.014 28.0467C70.0591 28.0892 70.0817 28.1402 70.0817 28.1999C70.0817 28.2595 70.0591 28.3106 70.014 28.353C69.9697 28.3955 69.9164 28.4167 69.854 28.4167ZM70.917 29.5933V30.8457H70.5971V28.7637H70.9062V29.089H70.9333C70.9821 28.9833 71.0562 28.8984 71.1556 28.8342C71.255 28.7692 71.3833 28.7366 71.5405 28.7366C71.6815 28.7366 71.8048 28.7655 71.9106 28.8234C72.0163 28.8803 72.0985 28.9671 72.1573 29.0836C72.216 29.1993 72.2454 29.3457 72.2454 29.5228V30.8457H71.9255V29.5445C71.9255 29.3809 71.883 29.2535 71.7981 29.1622C71.7131 29.0701 71.5966 29.024 71.4484 29.024C71.3463 29.024 71.255 29.0461 71.1746 29.0904C71.095 29.1347 71.0322 29.1993 70.9862 29.2842C70.9401 29.3692 70.917 29.4722 70.917 29.5933ZM73.6703 31.6698C73.5158 31.6698 73.3829 31.6499 73.2718 31.6102C73.1606 31.5713 73.068 31.5198 72.9939 31.4557C72.9207 31.3924 72.8624 31.3246 72.8191 31.2523L73.0739 31.0734C73.1028 31.1114 73.1394 31.1547 73.1837 31.2035C73.228 31.2532 73.2885 31.2962 73.3653 31.3323C73.443 31.3694 73.5447 31.3879 73.6703 31.3879C73.8384 31.3879 73.9771 31.3472 74.0864 31.2659C74.1957 31.1846 74.2504 31.0572 74.2504 30.8837V30.4608H74.2233C74.1998 30.4987 74.1664 30.5457 74.123 30.6017C74.0805 30.6568 74.0191 30.7061 73.9387 30.7495C73.8591 30.7919 73.7516 30.8132 73.6161 30.8132C73.448 30.8132 73.2971 30.7734 73.1633 30.6939C73.0305 30.6144 72.9252 30.4987 72.8475 30.3469C72.7707 30.1951 72.7323 30.0107 72.7323 29.7939C72.7323 29.5806 72.7698 29.3949 72.8448 29.2368C72.9198 29.0778 73.0242 28.9549 73.1579 28.8681C73.2917 28.7805 73.4462 28.7366 73.6215 28.7366C73.757 28.7366 73.8646 28.7592 73.9441 28.8044C74.0245 28.8487 74.0859 28.8993 74.1284 28.9562C74.1718 29.0122 74.2052 29.0583 74.2287 29.0945H74.2613V28.7637H74.5703V30.9053C74.5703 31.0843 74.5296 31.2297 74.4483 31.3418C74.3679 31.4547 74.2594 31.5374 74.123 31.5898C73.9875 31.6432 73.8365 31.6698 73.6703 31.6698ZM73.6594 30.5258C73.7877 30.5258 73.8962 30.4965 73.9847 30.4377C74.0733 30.379 74.1406 30.2945 74.1867 30.1842C74.2328 30.074 74.2558 29.9421 74.2558 29.7885C74.2558 29.6385 74.2332 29.5061 74.1881 29.3913C74.1429 29.2766 74.076 29.1866 73.9875 29.1216C73.8989 29.0565 73.7896 29.024 73.6594 29.024C73.5239 29.024 73.4109 29.0583 73.3206 29.127C73.2311 29.1957 73.1638 29.2878 73.1186 29.4035C73.0743 29.5192 73.0522 29.6475 73.0522 29.7885C73.0522 29.933 73.0748 30.0609 73.12 30.172C73.1661 30.2823 73.2338 30.369 73.3233 30.4323C73.4136 30.4946 73.5257 30.5258 73.6594 30.5258ZM77.0752 30.8891C76.88 30.8891 76.7119 30.843 76.5709 30.7508C76.43 30.6587 76.3215 30.5317 76.2456 30.3699C76.1697 30.2082 76.1318 30.0234 76.1318 29.8156C76.1318 29.6041 76.1706 29.4175 76.2483 29.2558C76.3269 29.0931 76.4363 28.9662 76.5764 28.8749C76.7173 28.7827 76.8818 28.7366 77.0697 28.7366C77.2161 28.7366 77.348 28.7637 77.4655 28.818C77.583 28.8722 77.6792 28.9481 77.7542 29.0457C77.8292 29.1433 77.8758 29.2571 77.8938 29.3872H77.574C77.5496 29.2924 77.4953 29.2083 77.4113 29.1351C77.3282 29.061 77.2161 29.024 77.0752 29.024C76.9505 29.024 76.8411 29.0565 76.7471 29.1216C76.6541 29.1857 76.5813 29.2766 76.5289 29.394C76.4774 29.5106 76.4516 29.6475 76.4516 29.8047C76.4516 29.9656 76.477 30.1056 76.5276 30.2249C76.5791 30.3442 76.6514 30.4368 76.7444 30.5028C76.8384 30.5687 76.9486 30.6017 77.0752 30.6017C77.1583 30.6017 77.2337 30.5873 77.3015 30.5583C77.3693 30.5294 77.4267 30.4879 77.4737 30.4336C77.5206 30.3794 77.5541 30.3144 77.574 30.2385H77.8938C77.8758 30.3614 77.831 30.4721 77.7597 30.5705C77.6892 30.6681 77.5956 30.7459 77.4791 30.8037C77.3634 30.8606 77.2288 30.8891 77.0752 30.8891ZM79.2344 30.8891C79.0338 30.8891 78.8607 30.8448 78.7152 30.7562C78.5707 30.6668 78.4591 30.5421 78.3804 30.3821C78.3027 30.2213 78.2639 30.0342 78.2639 29.821C78.2639 29.6077 78.3027 29.4198 78.3804 29.2571C78.4591 29.0936 78.5684 28.9662 78.7085 28.8749C78.8494 28.7827 79.0139 28.7366 79.2018 28.7366C79.3103 28.7366 79.4174 28.7547 79.5231 28.7908C79.6288 28.827 79.725 28.8857 79.8118 28.9671C79.8985 29.0475 79.9677 29.1541 80.0192 29.2869C80.0707 29.4198 80.0964 29.5833 80.0964 29.7776V29.9132H78.4916V29.6366H79.7711C79.7711 29.5192 79.7476 29.4144 79.7006 29.3222C79.6546 29.23 79.5886 29.1573 79.5028 29.104C79.4178 29.0506 79.3175 29.024 79.2018 29.024C79.0744 29.024 78.9642 29.0556 78.8711 29.1189C78.7789 29.1812 78.708 29.2625 78.6583 29.3628C78.6086 29.4632 78.5838 29.5707 78.5838 29.6854V29.8698C78.5838 30.027 78.6109 30.1603 78.6651 30.2696C78.7202 30.3781 78.7966 30.4608 78.8942 30.5177C78.9918 30.5737 79.1052 30.6017 79.2344 30.6017C79.3184 30.6017 79.3943 30.59 79.4621 30.5665C79.5308 30.5421 79.59 30.5059 79.6397 30.458C79.6894 30.4093 79.7278 30.3487 79.7549 30.2764L80.0639 30.3632C80.0314 30.468 79.9767 30.5602 79.8999 30.6397C79.8231 30.7183 79.7282 30.7797 79.6153 30.824C79.5023 30.8674 79.3753 30.8891 79.2344 30.8891ZM80.9029 29.5933V30.8457H80.583V28.7637H80.8921V29.089H80.9192C80.968 28.9833 81.0421 28.8984 81.1415 28.8342C81.2409 28.7692 81.3692 28.7366 81.5264 28.7366C81.6674 28.7366 81.7907 28.7655 81.8965 28.8234C82.0022 28.8803 82.0844 28.9671 82.1432 29.0836C82.2019 29.1993 82.2313 29.3457 82.2313 29.5228V30.8457H81.9114V29.5445C81.9114 29.3809 81.8689 29.2535 81.784 29.1622C81.699 29.0701 81.5825 29.024 81.4343 29.024C81.3322 29.024 81.2409 29.0461 81.1605 29.0904C81.0809 29.1347 81.0181 29.1993 80.9721 29.2842C80.926 29.3692 80.9029 29.4722 80.9029 29.5933ZM83.7212 28.7637V29.0348H82.6423V28.7637H83.7212ZM82.9568 28.2649H83.2766V30.2493C83.2766 30.3397 83.2898 30.4074 83.316 30.4526C83.3431 30.4969 83.3774 30.5267 83.419 30.5421C83.4614 30.5565 83.5062 30.5638 83.5532 30.5638C83.5884 30.5638 83.6173 30.562 83.6399 30.5583C83.6625 30.5538 83.6806 30.5502 83.6941 30.5475L83.7592 30.8349C83.7375 30.843 83.7072 30.8511 83.6684 30.8593C83.6295 30.8683 83.5803 30.8728 83.5206 30.8728C83.4303 30.8728 83.3417 30.8534 83.255 30.8145C83.1691 30.7757 83.0977 30.7165 83.0408 30.637C82.9848 30.5574 82.9568 30.4571 82.9568 30.3361V28.2649ZM84.2024 30.8457V28.7637H84.5115V29.0782H84.5331C84.5711 28.9752 84.6398 28.8916 84.7392 28.8274C84.8386 28.7633 84.9506 28.7312 85.0753 28.7312C85.0988 28.7312 85.1282 28.7317 85.1634 28.7326C85.1987 28.7335 85.2253 28.7348 85.2434 28.7366V29.0619C85.2326 29.0592 85.2077 29.0552 85.1688 29.0497C85.1309 29.0434 85.0907 29.0403 85.0482 29.0403C84.947 29.0403 84.8566 29.0615 84.7771 29.104C84.6985 29.1455 84.6362 29.2034 84.5901 29.2775C84.5449 29.3506 84.5223 29.4342 84.5223 29.5282V30.8457H84.2024ZM86.4321 30.8891C86.2315 30.8891 86.0585 30.8448 85.913 30.7562C85.7684 30.6668 85.6568 30.5421 85.5782 30.3821C85.5005 30.2213 85.4616 30.0342 85.4616 29.821C85.4616 29.6077 85.5005 29.4198 85.5782 29.2571C85.6568 29.0936 85.7661 28.9662 85.9062 28.8749C86.0472 28.7827 86.2116 28.7366 86.3996 28.7366C86.508 28.7366 86.6151 28.7547 86.7208 28.7908C86.8266 28.827 86.9228 28.8857 87.0095 28.9671C87.0963 29.0475 87.1654 29.1541 87.2169 29.2869C87.2684 29.4198 87.2942 29.5833 87.2942 29.7776V29.9132H85.6893V29.6366H86.9689C86.9689 29.5192 86.9454 29.4144 86.8984 29.3222C86.8523 29.23 86.7863 29.1573 86.7005 29.104C86.6156 29.0506 86.5153 29.024 86.3996 29.024C86.2722 29.024 86.1619 29.0556 86.0689 29.1189C85.9767 29.1812 85.9058 29.2625 85.8561 29.3628C85.8064 29.4632 85.7815 29.5707 85.7815 29.6854V29.8698C85.7815 30.027 85.8086 30.1603 85.8628 30.2696C85.918 30.3781 85.9943 30.4608 86.0919 30.5177C86.1895 30.5737 86.3029 30.6017 86.4321 30.6017C86.5162 30.6017 86.5921 30.59 86.6598 30.5665C86.7285 30.5421 86.7877 30.5059 86.8374 30.458C86.8871 30.4093 86.9255 30.3487 86.9526 30.2764L87.2617 30.3632C87.2291 30.468 87.1745 30.5602 87.0976 30.6397C87.0208 30.7183 86.926 30.7797 86.813 30.824C86.7 30.8674 86.5731 30.8891 86.4321 30.8891Z" fill="white"/>
</g>
<defs>
<clipPath id="clip0_117_397">
<rect width="94" height="31" fill="white"/>
</clipPath>
</defs>
</svg>
