<svg width="274" height="195" viewBox="0 0 274 195" fill="none" xmlns="http://www.w3.org/2000/svg">
<mask id="mask0_153_279" style="mask-type:luminance" maskUnits="userSpaceOnUse" x="0" y="0" width="274" height="195">
<path d="M274 0H0V195H274V0Z" fill="white"/>
</mask>
<g mask="url(#mask0_153_279)">
<path fill-rule="evenodd" clip-rule="evenodd" d="M137.023 2.20166C75.1337 2.20166 22.3857 41.544 2.19141 96.5765C22.3857 151.656 75.1337 190.998 137.023 191.045C186.18 191.045 229.6 166.222 255.484 128.378L255.438 128.472C262.154 118.636 267.704 107.957 271.854 96.6233C267.704 85.2421 262.154 74.5635 255.438 64.7747L255.484 64.8684C229.6 27.0248 186.18 2.20166 137.023 2.20166ZM43.9805 96.5759C43.9805 45.0093 85.6285 3.18457 137.023 3.18457C188.372 3.18457 230.02 45.0093 229.973 96.5759C229.973 148.143 188.325 189.967 136.976 189.967C85.6285 189.967 43.9805 148.143 43.9805 96.5759Z" fill="url(#paint0_linear_153_279)"/>
<path d="M137.023 158.072C103.257 158.072 75.7871 130.486 75.7871 96.576C75.7871 62.6666 103.257 35.0801 137.023 35.0801C170.743 35.127 198.213 62.6666 198.213 96.576C198.213 130.486 170.743 158.072 137.023 158.072Z" fill="url(#paint1_linear_153_279)"/>
<path d="M137.024 143.319C111.373 143.319 90.4785 122.383 90.4785 96.576C90.4785 70.8161 111.373 49.8335 137.024 49.8335C162.675 49.8335 183.522 70.8161 183.522 96.576C183.522 122.336 162.675 143.319 137.024 143.319Z" fill="white"/>
<path d="M137.024 69.5518C122.193 69.5518 110.114 81.6823 110.114 96.5762C110.114 111.47 122.193 123.601 137.024 123.601C151.855 123.601 163.934 111.47 163.934 96.5762C163.934 81.6823 151.855 69.5518 137.024 69.5518Z" fill="url(#paint2_linear_153_279)"/>
<path d="M115.57 73.7199C116.969 70.7224 117.762 67.397 117.762 63.8843C117.762 51.1917 107.501 40.8877 94.8619 40.8877C82.2229 40.8877 71.9629 51.1917 71.9629 63.8843C71.9629 76.5769 82.2229 86.8809 94.8619 86.8809C99.6659 86.8809 104.143 85.3821 107.828 82.8061C108.574 86.1783 111.559 88.7543 115.15 88.7543C119.301 88.7543 122.659 85.3821 122.659 81.2137C122.659 77.2326 119.534 73.9541 115.57 73.7199Z" fill="white"/>
<path fill-rule="evenodd" clip-rule="evenodd" d="M257.21 129.643C230.953 168.001 186.88 193.199 136.977 193.199C74.1548 193.199 20.5668 153.295 0.093075 97.3724C-0.093525 96.904 -0.093525 96.342 0.093075 95.8268C6.57577 78.1696 16.3228 62.1048 28.6358 48.3818C29.4288 47.4919 30.8278 47.3982 31.7138 48.2412C32.5998 49.0375 32.6928 50.4425 31.8538 51.3324C20.1008 64.4466 10.7266 79.762 4.43038 96.5762C24.4848 150.391 76.2538 188.75 136.883 188.75C185.294 188.75 228.061 164.301 253.526 127.067C254.225 126.083 255.578 125.802 256.557 126.504C257.537 127.207 257.817 128.565 257.164 129.549L257.21 129.643Z" fill="white"/>
<path fill-rule="evenodd" clip-rule="evenodd" d="M253.713 66.1795C253.667 66.1327 253.667 66.1327 253.62 66.0858C228.155 28.8511 185.435 4.4026 137.024 4.4026C135.812 4.4026 134.832 3.41904 134.832 2.2013C134.832 0.98356 135.812 0 137.024 0C186.834 0 230.861 25.1042 257.118 63.4162C257.165 63.463 257.165 63.5099 257.211 63.5099C264.02 73.486 269.664 84.3051 273.861 95.8268C274.281 96.9509 273.674 98.2155 272.555 98.637C271.436 99.0585 270.177 98.4496 269.757 97.3256C265.699 86.2722 260.289 75.7809 253.713 66.1795Z" fill="white"/>
</g>
<defs>
<linearGradient id="paint0_linear_153_279" x1="271.852" y1="12.6425" x2="8.73499" y2="56.6124" gradientUnits="userSpaceOnUse">
<stop stop-color="#FDD153"/>
<stop offset="0.5" stop-color="#D9155C"/>
<stop offset="1" stop-color="#09CFF9"/>
</linearGradient>
<linearGradient id="paint1_linear_153_279" x1="198.213" y1="41.8801" x2="77.0659" y2="55.9924" gradientUnits="userSpaceOnUse">
<stop stop-color="#FDD153"/>
<stop offset="0.5" stop-color="#D9155C"/>
<stop offset="1" stop-color="#09CFF9"/>
</linearGradient>
<linearGradient id="paint2_linear_153_279" x1="163.934" y1="72.5401" x2="110.677" y2="78.7462" gradientUnits="userSpaceOnUse">
<stop stop-color="#FDD153"/>
<stop offset="0.5" stop-color="#D9155C"/>
<stop offset="1" stop-color="#09CFF9"/>
</linearGradient>
</defs>
</svg>
